<?xml version='1.0' encoding='iso-8859-1'?>
<!DOCTYPE svg PUBLIC '-//W3C//DTD SVG 1.1//EN' 'http://www.w3.org/Graphics/SVG/1.1/DTD/svg11.dtd'>
<svg version="1.1" xmlns="http://www.w3.org/2000/svg" viewBox="0 0 428 428" xmlns:xlink="http://www.w3.org/1999/xlink" enable-background="new 0 0 428 428">
  <g>
    <path d="m167.175,371.84h93.651c4.142,0 7.5-3.358 7.5-7.5v-214.51c0-4.142-3.358-7.5-7.5-7.5h-93.651c-4.142,0-7.5,3.358-7.5,7.5v214.51c0,4.142 3.357,7.5 7.5,7.5zm7.5-214.509h78.651v199.51h-78.651v-199.51z"/>
    <path d="m169.623,95.016v21.153h-28.61c-4.142,0-7.5,3.358-7.5,7.5v266.833c0,4.142 3.358,7.5 7.5,7.5h145.973c4.142,0 7.5-3.358 7.5-7.5v-266.833c0-4.142-3.358-7.5-7.5-7.5h-28.609v-21.153c0-4.142-3.358-7.5-7.5-7.5h-73.754c-4.142,0-7.5,3.358-7.5,7.5zm109.864,287.985h-130.974v-251.832h130.973v251.832zm-36.109-280.485v13.653h-58.754v-13.653h58.754z"/>
    <path d="M413.226,180.383L219.074,1.978c-2.869-2.637-7.28-2.637-10.149,0L14.774,180.383c-2.276,2.092-3.036,5.365-1.914,8.246   c1.123,2.88,3.897,4.777,6.988,4.777h45.006V420.5c0,4.142,3.358,7.5,7.5,7.5h283.291c4.142,0,7.5-3.358,7.5-7.5V193.406h45.006   c3.091,0,5.866-1.896,6.988-4.777C416.262,185.749,415.502,182.475,413.226,180.383z M355.645,178.406c-4.142,0-7.5,3.358-7.5,7.5   V413H79.855V185.906c0-4.142-3.358-7.5-7.5-7.5h-33.26L214,17.686l174.905,160.72H355.645z"/>
    <path d="m221.892,252.479h-7.657l11.377-43.621c1.045-4.008-1.356-8.105-5.364-9.15-4.009-1.046-8.105,1.357-9.15,5.365l-13.827,53.014c-0.586,2.248-0.098,4.641 1.322,6.479 1.42,1.838 3.612,2.915 5.935,2.915h7.671l-9.814,37.843c-1.04,4.01 1.368,8.103 5.377,9.143 0.631,0.164 1.265,0.242 1.888,0.242 3.334,0 6.378-2.241 7.254-5.619l12.247-47.226c0.583-2.247 0.092-4.637-1.328-6.473-1.42-1.837-3.61-2.912-5.931-2.912z"/>
  </g>
</svg>
