<svg height="512pt" viewBox="0 0 512 512.001" width="512pt" xmlns="http://www.w3.org/2000/svg"><path d="m219.878906 399.777344c24.210938 0 47.953125-4.855469 69.960938-14.144532v42.730469c-22.402344 7.507813-46 11.390625-69.960938 11.390625-58.730468 0-113.949218-22.871094-155.476562-64.398437-41.53125-41.53125-64.402344-96.746094-64.402344-155.476563 0-58.730468 22.871094-113.949218 64.402344-155.476562 41.527344-41.53125 96.746094-64.402344 155.476562-64.402344 58.730469 0 113.949219 22.871094 155.476563 64.402344 41.53125 41.527344 64.402343 96.746094 64.402343 155.476562h-39.980468c0-99.199218-80.703125-179.902344-179.898438-179.902344-99.199218 0-179.902344 80.703126-179.902344 179.902344 0 99.195313 80.703126 179.898438 179.902344 179.898438zm112.9375-137.007813c0 35.917969-28.429687 65.3125-63.964844 66.886719v31.144531h-39.976562v-31.070312h-29.984375v31.070312h-39.976563v-31.070312h-29.984374v-39.976563h29.984374v-138.835937h-29.984374v-39.980469h29.984374v-30.980469h39.976563v30.980469h29.984375v-30.8125h39.976562v36.269531c21.769532 9.773438 36.980469 31.640625 36.980469 57.007813 0 11.089844-2.917969 21.503906-8.007812 30.542968 20.828125 11.367188 34.992187 33.472657 34.992187 58.824219zm-133.925781-111.851562v44.886719h46.359375c11.519531-.960938 20.601562-10.636719 20.601562-22.402344 0-12.398438-10.085937-22.484375-22.484374-22.484375zm93.949219 111.851562c0-14.878906-12.105469-26.984375-26.988282-26.984375h-66.960937v53.96875h66.960937c14.882813 0 26.988282-12.105468 26.988282-26.984375zm190.75 129.871094-42.832032 42.832031v-174.617187h-39.980468v174.617187l-42.832032-42.832031-28.269531 28.269531 91.089844 91.089844 91.09375-91.089844zm0 0"/></svg>