<?xml version="1.0"?>
<svg xmlns="http://www.w3.org/2000/svg" width="512" height="512" viewBox="0 0 512 512"><g><path fill="#fff" d="M491.27,254.45A7.969,7.969,0,0,0,496,256a8.159,8.159,0,0,0,3.62-.86A8.014,8.014,0,0,0,504,248V200a7.987,7.987,0,0,0-3.27-6.45l-240-176a7.982,7.982,0,0,0-9.46,0l-240,176A7.987,7.987,0,0,0,8,200v48a7.994,7.994,0,0,0,12.73,6.45L56,228.59V480H16a8,8,0,0,0,0,16H496a8,8,0,0,0,0-16H456V228.59ZM440,480H72V216.85L256,81.92,440,216.85ZM260.73,65.55a7.992,7.992,0,0,0-9.46,0L24,232.21V204.05L256,33.92,488,204.05v28.16Z"/><path fill="#e2af0b" d="M352,280a96,96,0,1,0-144,83.16V376h-8a8,8,0,0,0-8,8v24a8,8,0,0,0,8,8v16a8,8,0,0,0,8,8h8v8a24.032,24.032,0,0,0,24,24h32a24.032,24.032,0,0,0,24-24v-8h8a8,8,0,0,0,8-8V416a8,8,0,0,0,8-8V384a8,8,0,0,0-8-8h-8V363.16A95.626,95.626,0,0,0,352,280ZM280,448a8.011,8.011,0,0,1-8,8H240a8.011,8.011,0,0,1-8-8v-8h48Zm16-24H216v-8h80Zm8-24H208v-8h96Zm-11.64-48.72A7.984,7.984,0,0,0,288,358.4V376h-8V280a8,8,0,0,0-16,0v96H248V280a8,8,0,0,0-16,0v96h-8V358.4a7.984,7.984,0,0,0-4.36-7.12,80,80,0,1,1,72.72,0Z"/><path fill="#e2af0b" d="M224,256a8,8,0,0,0,8,8h48a8,8,0,0,0,0-16H232A8,8,0,0,0,224,256Z"/><path fill="#e2af0b" d="M248,160v8a8,8,0,0,0,16,0v-8a8,8,0,0,0-16,0Z"/><path fill="#e2af0b" d="M144,264h-8a8,8,0,0,0,0,16h8a8,8,0,0,0,0-16Z"/><path fill="#e2af0b" d="M368,288h8a8,8,0,0,0,0-16h-8a8,8,0,0,0,0,16Z"/><path fill="#e2af0b" d="M171.146,353.539,165.49,359.2a8,8,0,0,0,11.315,11.315l5.656-5.656a8,8,0,0,0-11.315-11.315Z"/><path fill="#e2af0b" d="M335.2,208.8a7.982,7.982,0,0,0,5.658-2.343l5.656-5.656A8,8,0,0,0,335.2,189.49l-5.656,5.656A8,8,0,0,0,335.2,208.8Z"/><path fill="#e2af0b" d="M171.146,206.461a8,8,0,0,0,11.315-11.315l-5.656-5.656a8,8,0,0,0-11.315,11.315Z"/><path fill="#e2af0b" d="M340.854,353.539a8,8,0,0,0-11.315,11.315l5.656,5.656A8,8,0,0,0,346.51,359.2Z"/></g></svg>
