<?xml version="1.0" encoding="iso-8859-1"?>
<!-- Generator: Adobe Illustrator 18.0.0, SVG Export Plug-In . SVG Version: 6.00 Build 0)  -->
<!DOCTYPE svg PUBLIC "-//W3C//DTD SVG 1.1//EN" "http://www.w3.org/Graphics/SVG/1.1/DTD/svg11.dtd">
<svg version="1.1" id="Capa_1" xmlns="http://www.w3.org/2000/svg" xmlns:xlink="http://www.w3.org/1999/xlink" x="0px" y="0px"
	 viewBox="0 0 489.443 489.443" style="enable-background:new 0 0 489.443 489.443;" xml:space="preserve">
<g>
	<path fill="#fff" d="M452.768,179.577L293.265,20.074c-26.768-26.766-70.318-26.766-97.086,0L36.676,179.577
		c-12.91,12.909-16.589,31.407-9.603,48.274c5.221,12.604,15.298,21.641,27.685,25.403v167.538c0,37.854,30.797,68.65,68.65,68.65
		h242.648c37.854,0,68.651-30.797,68.651-68.65V253.251c12.372-3.766,22.443-12.8,27.662-25.399
		C469.356,210.984,465.678,192.486,452.768,179.577z M434.653,216.371c-0.857,2.07-4.344,8.825-13.208,8.825
		c-9.229,0-16.737,7.509-16.737,16.738v178.858c0,21.312-17.339,38.65-38.651,38.65H123.408c-21.312,0-38.65-17.339-38.65-38.65
		V241.935c0-9.229-7.509-16.738-16.76-16.738c-8.864,0-12.351-6.755-13.208-8.825c-0.858-2.07-3.169-9.313,3.099-15.581
		L217.392,41.287c7.536-7.535,17.432-11.302,27.33-11.302c9.896,0,19.796,3.769,27.33,11.302L431.555,200.79
		C437.822,207.058,435.512,214.301,434.653,216.371z"/>
</g>
<g>
	<path fill="#e2af0b" d="M190.884,304.809v18.36h-54.648v-76.68h53.676v18.359h-32.615v10.801h27.863v17.063h-27.863v12.096H190.884z"/>
	<path fill="#e2af0b" d="M200.712,284.181c0-4.679,0.881-9.288,2.646-13.823c1.763-4.536,4.336-8.604,7.722-12.204
		c3.383-3.6,7.487-6.516,12.312-8.748c4.823-2.231,10.331-3.349,16.524-3.349c7.415,0,13.841,1.531,19.278,4.59
		c5.435,3.062,9.485,7.111,12.149,12.15l-16.092,11.448c-0.721-1.872-1.674-3.419-2.862-4.645c-1.188-1.223-2.502-2.195-3.941-2.916
		c-1.441-0.719-2.935-1.223-4.482-1.512c-1.549-0.287-3.042-0.432-4.481-0.432c-3.024,0-5.635,0.594-7.83,1.781
		c-2.197,1.188-3.996,2.737-5.4,4.645c-1.404,1.908-2.448,4.068-3.132,6.479c-0.686,2.414-1.026,4.807-1.026,7.183
		c0,2.664,0.396,5.221,1.188,7.668c0.791,2.448,1.943,4.608,3.456,6.479c1.512,1.873,3.364,3.367,5.562,4.482
		c2.195,1.117,4.661,1.674,7.398,1.674c1.439,0,2.916-0.162,4.428-0.486c1.512-0.323,2.97-0.863,4.374-1.619
		c1.404-0.757,2.663-1.729,3.78-2.916c1.115-1.188,1.998-2.646,2.646-4.374l17.172,10.26c-1.152,2.808-2.898,5.329-5.237,7.56
		c-2.341,2.232-5.006,4.104-7.992,5.616c-2.988,1.512-6.193,2.665-9.612,3.456c-3.421,0.791-6.75,1.188-9.99,1.188
		c-5.688,0-10.891-1.135-15.605-3.402c-4.717-2.269-8.785-5.273-12.204-9.019c-3.421-3.742-6.066-7.991-7.938-12.743
		C201.646,293.901,200.712,289.078,200.712,284.181z"/>
	<path fill="#e2af0b" d="M318.324,323.817c-5.832,0-11.124-1.116-15.876-3.349c-4.753-2.23-8.821-5.165-12.204-8.802
		c-3.386-3.635-6.013-7.793-7.885-12.474c-1.873-4.68-2.808-9.505-2.808-14.473c0-5.039,0.972-9.898,2.916-14.58
		c1.944-4.679,4.661-8.802,8.154-12.365c3.491-3.564,7.631-6.408,12.42-8.532c4.787-2.123,10.025-3.187,15.714-3.187
		c5.832,0,11.124,1.117,15.876,3.349c4.752,2.232,8.818,5.184,12.204,8.855c3.383,3.672,5.994,7.849,7.83,12.528
		c1.836,4.681,2.754,9.469,2.754,14.364c0,5.04-0.972,9.882-2.916,14.525c-1.944,4.645-4.645,8.748-8.101,12.313
		c-3.455,3.563-7.578,6.426-12.365,8.586C329.249,322.737,324.011,323.817,318.324,323.817z M300.936,284.937
		c0,2.593,0.359,5.095,1.08,7.507c0.719,2.413,1.799,4.554,3.24,6.426c1.439,1.873,3.257,3.385,5.454,4.536
		c2.195,1.152,4.806,1.728,7.83,1.728c3.023,0,5.651-0.594,7.884-1.782c2.23-1.188,4.05-2.735,5.454-4.644
		c1.404-1.907,2.446-4.086,3.132-6.534c0.684-2.447,1.026-4.931,1.026-7.452c0-2.592-0.361-5.093-1.08-7.506
		c-0.721-2.411-1.819-4.536-3.294-6.372c-1.477-1.836-3.313-3.311-5.509-4.428c-2.196-1.115-4.771-1.674-7.722-1.674
		c-3.023,0-5.635,0.577-7.83,1.728c-2.197,1.152-4.015,2.684-5.454,4.59c-1.44,1.909-2.502,4.069-3.186,6.48
		C301.276,279.952,300.936,282.418,300.936,284.937z"/>
</g>
</svg>
