<?xml version="1.0" encoding="utf-8"?>
<!-- Generator: Adobe Illustrator 22.0.1, SVG Export Plug-In . SVG Version: 6.00 Build 0)  -->
<svg version="1.1" id="Слой_1" xmlns="http://www.w3.org/2000/svg" xmlns:xlink="http://www.w3.org/1999/xlink" x="0px" y="0px"
	 viewBox="0 0 3000 1600" style="enable-background:new 0 0 3000 1600;" xml:space="preserve">
<style type="text/css">
	.st0{fill:url(#SVGID_1_);}
	.st1{fill:#FFFFFF;}
	.st2{fill:#808081;}
</style>
<g>
	<g>
		
			<radialGradient id="SVGID_1_" cx="388.2296" cy="49536.1719" r="458.9885" gradientTransform="matrix(6.400000e-03 -1.1539 -0.2428 -1.100000e-03 13618.082 1324.2255)" gradientUnits="userSpaceOnUse">
			<stop  offset="2.700000e-07" style="stop-color:#020600"/>
			<stop  offset="2.049091e-02" style="stop-color:#0D110B"/>
			<stop  offset="0.1353" style="stop-color:#454843"/>
			<stop  offset="0.2536" style="stop-color:#777975"/>
			<stop  offset="0.3728" style="stop-color:#A0A2A0"/>
			<stop  offset="0.493" style="stop-color:#C3C4C2"/>
			<stop  offset="0.6147" style="stop-color:#DDDEDD"/>
			<stop  offset="0.7382" style="stop-color:#F0F0F0"/>
			<stop  offset="0.865" style="stop-color:#FBFBFB"/>
			<stop  offset="1" style="stop-color:#FFFFFF"/>
		</radialGradient>
		<path class="st0" d="M1596.6,211.7c-68.1-0.3-124.9,272.6-126.8,609.5c-1.9,336.9,51.9,610.3,120,610.6
			c68.1,0.3,124.9-272.6,126.8-609.5C1718.4,485.4,1664.7,212,1596.6,211.7z"/>
		<g>
			<path d="M1827.8,1111.6c0.2,1.6,0.4,3.2,0.4,4.8h113.6l28.6-120.2h-4.2C1943.2,1048.4,1903.2,1105.1,1827.8,1111.6z"/>
			<path d="M1708.4,527.9h-84.9v39.9c22.2-18.6,49.9-31.9,84.2-35C1707.9,531.1,1708.1,529.5,1708.4,527.9z"/>
			<polygon points="1863.8,528 1549.3,1112.2 1549.3,1116.4 1681.2,1115 1995.7,532.1 1995.7,527.9 			"/>
		</g>
		<rect x="971.9" y="167.2" class="st1" width="619.1" height="1214.6"/>
		<g>
			<path d="M1238,978.5c-2.3-0.9-4.5-2-6.7-3.2c-0.5,1.1-0.9,2.1-1.3,3.1c-37.4,85.5-82.4,123.5-143.8,133.9v4.3h204.2v-4.3
				C1235.1,1112.2,1221.7,1043.8,1238,978.5z"/>
			<path d="M1453.3,512h-21.1c0,0-64.1,159-64.2,158.9c6.7,14.7,49.8,117.4,90.1,211.6l1.9,3.5c26.8,63.9,51.8,122.6,61.3,146.8
				c26.8,63,20.1,79.4-26.8,79.4v4.3h97V826.7C1529.7,686.2,1453.3,512,1453.3,512z"/>
		</g>
	</g>
	<g>
		<path d="M1067,1335.6l23.5-57.5l23.5,57.5h-8.6l-1.7-4.6h-26.3l-1.8,4.6H1067z M1080.1,1323.7h20.6l-10.3-26.4L1080.1,1323.7z"/>
		<path d="M1134.7,1327.5h23.5v8.2h-31.9v-57.6h8.4V1327.5z"/>
		<path d="M1178.8,1327.3h25.6v8.2h-33.9v-57.3h33.3v8.1h-25v9.1v4.7v5.7h22.5v7.8h-22.5V1327.3z"/>
		<path d="M1254.5,1278.3L1254.5,1278.3l-14.4,28.7l14.4,28.8v0.1h-8.9l-10-19.9l-10,19.9h-8.9v-0.1l14.4-28.8l-14.4-28.6v-0.1h8.9
			l9.9,19.8l10-19.8H1254.5z"/>
		<path d="M1266.9,1335.6l23.5-57.5l23.5,57.5h-8.6l-1.7-4.6h-26.3l-1.8,4.6H1266.9z M1280.1,1323.7h20.6l-10.3-26.4L1280.1,1323.7z
			"/>
		<path d="M1334.2,1335.9h-7.9v-58.6l37.2,44.5v-43.5h7.9v57.6h-7.7l-29.5-36.3V1335.9z"/>
		<path d="M1403.8,1278.2c3.9,0,7.5,0.8,10.9,2.3c3.4,1.5,6.3,3.6,8.8,6.2c2.5,2.6,4.5,5.7,6,9.1c1.5,3.5,2.2,7.2,2.2,11.2
			c0,4-0.7,7.7-2.1,11.2c-1.4,3.5-3.4,6.5-5.8,9.1c-2.5,2.6-5.4,4.6-8.8,6.2c-3.4,1.5-7.1,2.3-11.1,2.3h-20.1v-57.5H1403.8z
			 M1402.9,1328.3c2.9,0,5.6-0.6,8.1-1.7c2.5-1.1,4.6-2.7,6.4-4.6c1.8-1.9,3.2-4.2,4.2-6.8c1-2.6,1.5-5.4,1.5-8.3s-0.5-5.7-1.5-8.3
			c-1-2.6-2.4-4.9-4.2-6.8c-1.8-1.9-3.9-3.5-6.4-4.6c-2.5-1.1-5.1-1.7-8-1.7h-10.7v42.8H1402.9z"/>
		<path d="M1452.4,1327.3h25.6v8.2h-33.9v-57.3h33.3v8.1h-25v9.1v4.7v5.7h22.5v7.8h-22.5V1327.3z"/>
		<path d="M1529.9,1304.2c-0.7,2.4-1.8,4.5-3.3,6.4s-3.2,3.5-5.3,4.8c-0.1,0.1-0.2,0.2-0.4,0.2c-0.2,0.1-0.3,0.1-0.4,0.2l10.1,19.9
			h-8.9l-8.9-17.3c-0.6,0.1-1.3,0.2-1.9,0.2c-0.6,0.1-1.3,0.1-2,0.1h-10.3v17h-8.4v-57.7h18.7c2.4,0,4.6,0.3,6.6,0.9
			c2.1,0.6,4,1.4,5.7,2.5c4.2,2.7,7.1,6.4,8.6,11.2c0.1,0.3,0.1,0.5,0.2,0.7c0.1,0.2,0.1,0.4,0.2,0.7v0.4c0.1,0.3,0.2,0.5,0.2,0.9
			c0,0.3,0.1,0.6,0.1,0.9v0.1c0.1,0.3,0.1,0.6,0.1,0.9c0,0.3,0,0.7,0,1v0.1v0.2c0,0.3,0,0.6,0,0.9c0,0.3,0,0.6-0.1,0.9v0.2
			c-0.1,0.3-0.1,0.6-0.1,0.9c0,0.3-0.1,0.6-0.2,0.9v0.3C1530.1,1303.3,1530,1303.8,1529.9,1304.2z M1510.1,1311.4
			c1.7,0,3.3-0.4,4.7-1.1s2.7-1.7,3.7-2.9c1-1.2,1.9-2.6,2.5-4.1c0.6-1.5,0.9-3.2,0.9-4.8c0-1.6-0.3-3.2-0.9-4.8
			c-0.6-1.6-1.5-3-2.5-4.1c-1-1.2-2.3-2.1-3.7-2.9s-3-1.1-4.7-1.1h-11.2v25.9H1510.1z"/>
		<path d="M1619,1278.3l-23.4,49.3h23.3v0.1v8.2v0.1h-36.6v-0.1l23.1-49.4h-20v-8.1v-0.1L1619,1278.3L1619,1278.3L1619,1278.3z"/>
		<path d="M1631.4,1335.6l23.5-57.5l23.5,57.5h-8.6l-1.7-4.6h-26.3l-1.8,4.6H1631.4z M1644.5,1323.7h20.6l-10.3-26.4L1644.5,1323.7z
			"/>
		<path d="M1711.4,1300.2l18,35.4h-8.9l-14.4-28.3l-7.1,9.6v18.8h-8.3v-57.4h8.3v26l19.1-26h9.6L1711.4,1300.2z"/>
		<path d="M1772.6,1278.2h8.4v57.4h-8.4v-10.3v-7.5h-22.4v7.5v10.3h-8.4v-57.4h8.4v10v14.8v7.4v0.2h22.4v-0.2v-7.4v-14.8V1278.2z"/>
		<path d="M1793.4,1335.6l23.5-57.5l23.5,57.5h-8.6l-1.7-4.6h-26.3l-1.8,4.6H1793.4z M1806.6,1323.7h20.6l-10.3-26.4L1806.6,1323.7z
			"/>
		<path d="M1892.2,1304.2c-0.7,2.4-1.8,4.5-3.3,6.4c-1.4,1.9-3.2,3.5-5.3,4.8c-0.1,0.1-0.2,0.2-0.4,0.2c-0.2,0.1-0.3,0.1-0.4,0.2
			l10.1,19.9h-8.9l-8.9-17.3c-0.6,0.1-1.3,0.2-1.9,0.2c-0.6,0.1-1.3,0.1-2,0.1h-10.3v17h-8.4v-57.7h18.7c2.4,0,4.6,0.3,6.6,0.9
			c2.1,0.6,4,1.4,5.7,2.5c4.2,2.7,7.1,6.4,8.6,11.2c0.1,0.3,0.1,0.5,0.2,0.7c0.1,0.2,0.1,0.4,0.2,0.7v0.4c0.1,0.3,0.2,0.5,0.2,0.9
			c0,0.3,0.1,0.6,0.1,0.9v0.1c0.1,0.3,0.1,0.6,0.1,0.9c0,0.3,0,0.7,0,1v0.1v0.2c0,0.3,0,0.6,0,0.9c0,0.3,0,0.6-0.1,0.9v0.2
			c-0.1,0.3-0.1,0.6-0.1,0.9c0,0.3-0.1,0.6-0.2,0.9v0.3C1892.4,1303.3,1892.3,1303.8,1892.2,1304.2z M1872.4,1311.4
			c1.7,0,3.3-0.4,4.7-1.1c1.4-0.7,2.7-1.7,3.7-2.9c1-1.2,1.9-2.6,2.5-4.1c0.6-1.5,0.9-3.2,0.9-4.8c0-1.6-0.3-3.2-0.9-4.8
			c-0.6-1.6-1.5-3-2.5-4.1c-1-1.2-2.3-2.1-3.7-2.9c-1.4-0.7-3-1.1-4.7-1.1h-11.2v25.9H1872.4z"/>
		<path d="M1934,1278c4,0,7.7,0.8,11.2,2.3c3.5,1.5,6.6,3.6,9.1,6.2c2.6,2.6,4.6,5.7,6.1,9.2c1.5,3.5,2.2,7.3,2.2,11.3
			c0,4-0.7,7.7-2.2,11.2c-1.5,3.5-3.5,6.6-6.1,9.2c-2.6,2.6-5.6,4.7-9.1,6.2c-3.5,1.5-7.2,2.3-11.2,2.3c-4,0-7.7-0.8-11.2-2.3
			c-3.5-1.5-6.5-3.6-9.1-6.2c-2.6-2.6-4.6-5.7-6.1-9.2c-1.5-3.5-2.2-7.2-2.2-11.2c0-4,0.7-7.8,2.2-11.3c1.5-3.5,3.5-6.6,6.1-9.2
			c2.6-2.6,5.6-4.7,9.1-6.2C1926.3,1278.7,1930.1,1278,1934,1278z M1934,1327.8c2.7,0,5.3-0.5,7.7-1.6c2.4-1.1,4.6-2.6,6.4-4.5
			c1.8-1.9,3.2-4.1,4.3-6.6c1-2.5,1.6-5.2,1.6-8.1s-0.5-5.6-1.6-8.1c-1-2.6-2.5-4.8-4.3-6.7c-1.8-1.9-3.9-3.4-6.4-4.5
			c-2.4-1.1-5-1.6-7.7-1.6c-2.7,0-5.3,0.5-7.7,1.6c-2.4,1.1-4.5,2.6-6.3,4.5c-1.8,1.9-3.2,4.1-4.3,6.7c-1,2.6-1.6,5.3-1.6,8.1
			s0.5,5.6,1.6,8.1c1,2.5,2.5,4.7,4.3,6.6c1.8,1.9,3.9,3.4,6.3,4.5C1928.8,1327.2,1931.3,1327.8,1934,1327.8z"/>
		<path d="M2013.2,1278.3h8.7l-23.4,57.7l-23.4-57.7h8.7l14.7,36.1L2013.2,1278.3z"/>
	</g>
	<g>
		<path class="st2" d="M1287.2,1413.8l15.9-39l15.9,39h-5.8l-1.2-3.1h-17.8l-1.2,3.1H1287.2z M1296.2,1405.7h14l-7-17.9
			L1296.2,1405.7z"/>
		<path class="st2" d="M1381,1392.5c-0.5,1.6-1.2,3-2.2,4.3c-1,1.3-2.2,2.4-3.6,3.2c-0.1,0.1-0.2,0.1-0.3,0.2s-0.2,0.1-0.3,0.2
			l6.9,13.5h-6l-6-11.8c-0.4,0.1-0.9,0.1-1.3,0.2c-0.4,0-0.9,0.1-1.4,0.1h-7v11.6h-5.7v-39.2h12.7c1.6,0,3.1,0.2,4.5,0.6
			c1.4,0.4,2.7,1,3.9,1.7c2.9,1.8,4.8,4.3,5.8,7.6c0,0.2,0.1,0.3,0.1,0.5c0,0.1,0.1,0.3,0.2,0.5v0.3c0.1,0.2,0.1,0.4,0.1,0.6
			c0,0.2,0,0.4,0.1,0.6v0.1c0,0.2,0.1,0.4,0.1,0.6s0,0.4,0,0.7v0.1v0.1c0,0.2,0,0.4,0,0.6s0,0.4-0.1,0.6v0.1c0,0.2-0.1,0.4-0.1,0.6
			c0,0.2-0.1,0.4-0.1,0.6v0.2C1381.1,1391.9,1381,1392.2,1381,1392.5z M1367.5,1397.4c1.2,0,2.2-0.2,3.2-0.7c1-0.5,1.8-1.2,2.5-2
			c0.7-0.8,1.3-1.8,1.7-2.8s0.6-2.1,0.6-3.3c0-1.1-0.2-2.2-0.6-3.3c-0.4-1.1-1-2-1.7-2.8c-0.7-0.8-1.6-1.5-2.5-1.9
			c-1-0.5-2.1-0.7-3.2-0.7h-7.6v17.6H1367.5z"/>
		<path class="st2" d="M1435.8,1408.5c2.3,0,4.4-0.5,6.3-1.6c1.9-1.1,3.5-2.5,4.7-4.3l4.6,3.5c-1.8,2.4-4,4.3-6.7,5.8
			c-2.7,1.4-5.6,2.1-8.9,2.1c-2.7,0-5.2-0.5-7.5-1.5c-2.3-1-4.4-2.4-6.1-4.2c-1.7-1.8-3.1-3.8-4.1-6.2c-1-2.4-1.5-4.9-1.5-7.6
			c0-2.7,0.5-5.2,1.5-7.6c1-2.4,2.4-4.4,4.1-6.2c1.7-1.8,3.8-3.2,6.1-4.2c2.3-1,4.8-1.5,7.5-1.5c3.2,0,6.2,0.7,8.9,2.1
			c2.7,1.4,4.9,3.3,6.7,5.8l-4.6,3.5c-1.2-1.8-2.8-3.3-4.7-4.3c-1.9-1.1-4-1.6-6.3-1.6c-1.8,0-3.6,0.4-5.2,1.1c-1.6,0.7-3,1.8-4.2,3
			c-1.2,1.3-2.2,2.8-2.9,4.5c-0.7,1.7-1.1,3.5-1.1,5.5s0.4,3.8,1.1,5.5c0.7,1.7,1.7,3.2,2.9,4.5c1.2,1.3,2.6,2.3,4.2,3
			C1432.3,1408.1,1434,1408.5,1435.8,1408.5z"/>
		<path class="st2" d="M1507.3,1374.8h5.7v39h-5.7v-7v-5.1h-15.2v5.1v7h-5.7v-39h5.7v6.8v10v5v0.1h15.2v-0.1v-5v-10V1374.8z"/>
		<path class="st2" d="M1548.1,1374.8h5.7v39h-5.7V1374.8z"/>
		<path class="st2" d="M1588.8,1374.8h24.9v5.5h-9.6v33.5h-5.6v-33.5h-9.6V1374.8z"/>
		<path class="st2" d="M1654.4,1408.2h17.4v5.6h-23v-38.9h22.6v5.5h-17v6.2v3.2v3.9h15.3v5.3h-15.3V1408.2z"/>
		<path class="st2" d="M1726.1,1408.5c2.3,0,4.4-0.5,6.3-1.6c1.9-1.1,3.5-2.5,4.7-4.3l4.6,3.5c-1.8,2.4-4,4.3-6.7,5.8
			c-2.7,1.4-5.6,2.1-8.9,2.1c-2.7,0-5.2-0.5-7.5-1.5c-2.3-1-4.4-2.4-6.1-4.2c-1.7-1.8-3.1-3.8-4.1-6.2c-1-2.4-1.5-4.9-1.5-7.6
			c0-2.7,0.5-5.2,1.5-7.6c1-2.4,2.4-4.4,4.1-6.2c1.7-1.8,3.8-3.2,6.1-4.2c2.3-1,4.8-1.5,7.5-1.5c3.2,0,6.2,0.7,8.9,2.1
			c2.7,1.4,4.9,3.3,6.7,5.8l-4.6,3.5c-1.2-1.8-2.8-3.3-4.7-4.3c-1.9-1.1-4-1.6-6.3-1.6c-1.8,0-3.6,0.4-5.2,1.1c-1.6,0.7-3,1.8-4.2,3
			c-1.2,1.3-2.2,2.8-2.9,4.5c-0.7,1.7-1.1,3.5-1.1,5.5s0.4,3.8,1.1,5.5c0.7,1.7,1.7,3.2,2.9,4.5c1.2,1.3,2.6,2.3,4.2,3
			C1722.5,1408.1,1724.3,1408.5,1726.1,1408.5z"/>
		<path class="st2" d="M1776.7,1374.8h24.9v5.5h-9.6v33.5h-5.6v-33.5h-9.6V1374.8z"/>
	</g>
</g>
</svg>
