<?xml version="1.0" encoding="utf-8"?>
<!-- Generator: Adobe Illustrator 22.0.1, SVG Export Plug-In . SVG Version: 6.00 Build 0)  -->
<svg version="1.1" id="Слой_1" xmlns="http://www.w3.org/2000/svg" xmlns:xlink="http://www.w3.org/1999/xlink" x="0px" y="0px"
	 viewBox="0 0 3000 1600" style="enable-background:new 0 0 3000 1600;" xml:space="preserve">
<g>
	<g>
		<path d="M785.8,789.7c-9.8,0.3-17,0.5-21.5,0.5c-7,0-16.7-0.2-29.1-0.5c-2.6,2.9-5.8,6.2-9.5,10.1c-3.8,3.9-7.3,7.5-10.6,10.8
			c-3.3,3.3-6.2,6.1-8.6,8.4c-2.4,2.3-4.4,4.3-5.9,5.8c-9,8.8-14.9,14.6-17.7,17.2c-2.7,2.7-5.6,5.1-8.6,7.3c-3,2.2-5.8,3.2-8.3,3.2
			c-2.9,0-4.3-1.3-4.3-3.9c0-2.9,2-7.3,6.1-13.2c4.1-6,8.7-11.2,13.8-15.8c5.1-4.6,9.3-6.8,12.6-6.8c0.9,0,2.2,0.4,3.8,1.2
			l23.2-24.8c-2.9-0.4-6.8-0.7-11.5-0.8c-4.7-0.1-7.9-0.5-9.5-1c-1.6-0.6-2.4-2-2.4-4.2c0-3.5,3.7-9,11.3-16.5
			c4.1-4.2,7.9-6.8,11.5-7.9c3.6-1.1,10.4-1.8,20.5-1.8c-6,0.8-10.2,1.8-12.7,2.9c-2.5,1.1-3.9,2.8-4.1,5c2.4,0,4.5,0,6.5,0
			c2,0,4.6,0,7.8-0.1c3.2,0,5.6-0.1,7.2-0.2c13.4-13,25.5-24.4,36.4-34.1c10.9-9.7,22.4-18.8,34.5-27.5c12.1-8.7,25-16.7,38.7-23.9
			c2.7,3.5,4,7.2,4,11c0,3.2-1,6.8-3.1,11c-2.1,4.2-6.5,12-13.2,23.4c-6.7,11.5-13.6,23.6-20.5,36.5c2.3,0,4.2,0,5.7,0.1
			c1.5,0,3.1,0.1,4.8,0.2c4.6,0,7.5,0.1,8.5,0.2c1,0.2,1.5,1,1.5,2.4c0,0.7-0.6,1.8-1.9,3.5c-1.3,1.7-3.5,4.4-6.7,8.3
			c-3.2,3.9-6.3,7.8-9.3,11.8l-18,1.5c-9.5,17.9-14.3,28-14.3,30.3c0,3.3,1.8,5,5.3,5c1.7,0,8.8-3.6,21.3-10.8l-1,6.5
			c-6.7,5.1-11.9,9-15.6,11.9c-3.7,2.9-6.9,5.3-9.7,7.2c-2.7,1.9-5.2,3.3-7.5,4.3c-2.2,0.9-4.5,1.4-6.8,1.4c-2.7,0-5.3-1.2-7.9-3.7
			c-2.6-2.5-3.9-6-3.9-10.6c0-1.9,0.7-4.5,2.1-8c1.4-3.5,2.9-6.8,4.5-10S779.4,801.7,785.8,789.7z M762.7,761.9l39.6-0.7
			c4.6-7.9,8.4-14.3,11.3-19.2c2.9-4.9,6.1-10.2,9.5-16c3.5-5.7,6.4-10.6,8.9-14.6c2.5-4,5.2-8.5,8.3-13.6
			c-5.9,3.7-11.9,7.7-18,12.2c-6.1,4.5-13,9.9-20.7,16.2c-7.7,6.3-14.5,12.2-20.4,17.6C775.3,749.3,769.1,755.3,762.7,761.9z"/>
		<path d="M943.3,809.5c-5.9,5.8-11,10.7-15.3,14.8c-4.3,4.1-8.1,7.4-11.4,10c-3.3,2.6-6.1,4.5-8.5,5.7c-2.4,1.2-4.6,1.8-6.7,1.8
			c-2.9,0-5.4-1-7.3-2.9c-1.9-2-2.9-5-2.9-9.2c0-2.2,0.3-4.6,0.9-7.2c0.6-2.6,1.8-5.7,3.7-9.5c1.8-3.7,4.5-8.3,7.9-13.6
			c3.5-5.3,8.1-11.8,13.8-19.5c-0.8-1.5-2.1-3-3.7-4.6c-1.7-1.6-3.3-2.8-5-3.7c-2.7,3.1-6,6.9-9.8,11.5c-3.8,4.6-7.9,9.3-12.2,14.2
			c-4.3,4.9-8.6,9.8-12.8,14.6c-4.3,4.8-8.2,9-11.8,12.6c-2.1,2.1-4,3.9-5.5,5.4c-1.5,1.5-2.9,2.7-4.1,3.5c-1.2,0.9-2.2,1.5-3.2,2
			c-0.9,0.4-1.8,0.6-2.6,0.6c-1.3,0-2.6-0.8-3.9-2.3c-1.3-1.5-2.4-3.6-3.4-6.2c-1-2.6-1.8-5.4-2.4-8.6c-0.6-3.2-0.9-6.4-0.9-9.8
			c0-2.6,0.3-5.1,1-7.6c0.7-2.4,1.6-4.6,2.8-6.5c1.2-1.9,2.8-3.4,4.6-4.5c1.8-1.1,3.9-1.7,6.3-1.7c2.4,0,4.4,0.4,6,1.2
			c1.6,0.8,2.4,2.1,2.4,3.9c0,0.8-0.3,1.7-0.9,2.6c-0.6,0.9-1.3,1.8-2,2.6c-0.7,0.9-1.4,1.7-2.1,2.5c-0.7,0.8-1,1.5-1.1,2.2
			c-0.1,0.1-0.1,0.5-0.1,1.2c0,1.4,0.4,2.3,1.3,2.9c0.9,0.5,1.6,0.8,2.3,0.8c0.6,0,2.2-1.3,4.8-3.9c2.6-2.6,5.9-5.9,9.8-10.1
			c3.9-4.2,8.3-9,13.1-14.6c4.8-5.5,9.7-11.2,14.8-17.1c-2.4-2.3-3.7-3.8-3.7-4.5c0-0.7,0.3-1.4,0.9-2.3c0.6-0.9,1.3-1.7,2.1-2.6
			c0.8-0.9,1.7-1.7,2.6-2.4c0.9-0.8,1.7-1.4,2.4-1.9c1.1-0.7,2.2-1.3,3.1-1.8c0.9-0.4,1.9-0.7,3.1-0.7c0.9,0,2,0.2,3.3,0.6
			c1.3,0.4,2.9,0.9,4.8,1.7c0.7,0.2,2,0.9,4.1,2.1c2.1,1.1,4.2,2.5,6.5,4.1c2.2,1.6,4.2,3.3,6,5.2c1.8,1.9,2.6,3.7,2.6,5.5
			c0,1-0.3,2-0.9,3.2c-0.6,1.1-1.2,2.4-1.8,3.8c-2.1,4.2-4.4,8.2-6.8,12c-2.4,3.9-4.8,7.4-6.9,10.7c-2.2,3.3-4,6.2-5.5,8.7
			c-1.5,2.5-2.4,4.6-2.8,6.1c-0.2,1-0.4,1.8-0.4,2.6c0,1.6,0.4,2.9,1.2,3.7c0.8,0.8,1.9,1.2,3.2,1.2c1.2,0,2.5-0.3,4-0.9
			c1.4-0.6,3.2-1.5,5.2-2.9c2-1.3,4.5-3.1,7.4-5.3c2.9-2.2,6.4-4.8,10.5-8V809.5z"/>
		<path d="M962.3,805.9v3.1c0,4.8,1.2,8.6,3.5,11.3c2.4,2.7,5.5,4,9.3,4c4,0,8.1-0.9,12.4-2.8c4.3-1.9,8.5-4.4,12.8-7.5
			c4.2-3.1,9.4-7.3,15.5-12.5v7.5c-9.2,11.1-17.9,19.6-25.9,25.5c-8.1,5.9-16.3,8.9-24.6,8.9c-7.3,0-13-2.8-17.2-8.4
			c-4.2-5.6-6.4-13.3-6.4-23.1c0-8.6,2-16.3,6-23.3c4-7,10.5-14.3,19.6-22.1c6.2-5.3,12.4-9.3,18.5-12c6.1-2.7,11.6-4,16.4-4
			c3.8,0,6.9,0.9,9.1,2.6c2.2,1.8,3.4,4.4,3.4,7.9c0,5.1-1.9,10.3-5.7,15.3c-3.8,5.1-9.7,10.2-17.5,15.2
			C983.4,796.4,973.8,801.3,962.3,805.9z M963.5,798c7.3-2.9,13.6-6.4,18.8-10.6c5.2-4.2,9.1-8.3,11.6-12.2c2.5-3.9,3.7-6.7,3.7-8.5
			c0-1.9-0.9-2.8-2.6-2.8c-1.5,0-3.9,0.9-7.2,2.8c-3.3,1.9-6.6,4.3-10,7.3c-3.4,3-6.4,6.6-9.1,10.6
			C966.1,788.7,964.3,793.2,963.5,798z"/>
		<path d="M1116.5,809.7c-9.1,10.8-16.8,19-23,24.4c-6.2,5.4-11.4,8.1-15.5,8.1c-2.9,0-5.6-0.6-8-1.7c-2.4-1.1-4.7-2.9-6.9-5.4
			c-2.2-2.4-4.4-5.6-6.6-9.5c-2.2-3.9-4.6-8.6-7.1-14.1c-4.9,5.7-8.8,10.2-11.7,13.5c-2.9,3.3-5.2,5.7-6.8,7.3
			c-1.7,1.6-2.9,2.7-3.7,3.1c-0.8,0.4-1.5,0.6-2.1,0.6c-1.3,0-2.6-0.8-3.9-2.3c-1.3-1.5-2.4-3.6-3.4-6.2c-1-2.6-1.8-5.4-2.4-8.6
			c-0.6-3.2-0.9-6.4-0.9-9.8c0-1.6,0-3.1,0.1-4.5c0.1-1.3,0.4-2.8,0.9-4.3c0.5-1.5,1.2-3.3,2.3-5.3c1-2,2.5-4.5,4.5-7.5
			c5.5-8.6,10.4-15,14.4-19c4.1-4,8-6.1,11.7-6.1c2.4,0,4.4,0.4,6.1,1.2c1.7,0.8,2.5,2.2,2.5,4c0,0.8-0.1,1.5-0.2,2.1
			c-0.2,0.6-0.5,1.2-0.9,1.8c-0.4,0.7-1.1,1.4-1.9,2.3c-0.8,0.9-1.8,2-3.1,3.4c-6.7,7.4-11.6,13.4-14.7,18
			c-3.1,4.6-4.7,7.9-4.7,10.2c0,1.1,0.2,1.9,0.7,2.4c0.5,0.5,1.1,0.8,1.7,0.8c0.6,0,1.6-0.6,3.1-1.7c1.5-1.1,3.2-2.6,5.1-4.3
			c1.9-1.8,4-3.7,6.1-5.8c2.2-2.1,4.2-4.2,6.2-6.2c2-2,3.7-3.7,5.1-5.3c1.5-1.5,2.5-2.6,3.2-3.2c10.2-10,18.8-17.5,25.7-22.3
			c7-4.8,12.7-7.3,17.1-7.3c1.2,0,2.3,0.4,3.3,1.2c1,0.8,1.8,1.8,2.5,3.2c0.7,1.3,1.2,2.9,1.6,4.6c0.4,1.8,0.6,3.6,0.6,5.6
			c0,4-0.8,7.8-2.4,11.4c-1.6,3.6-4.2,7.2-7.6,10.8c-3.4,3.6-7.8,7.3-13,11.2c-5.3,3.9-11.5,8.1-18.8,12.5c2.4,3.7,4.6,6.3,6.5,8
			c1.9,1.7,4.2,2.5,7.1,2.5c1.8,0,3.6-0.3,5.4-1c1.8-0.7,3.9-1.9,6.2-3.5c2.3-1.7,5.1-3.9,8.2-6.7c3.1-2.8,7-6.3,11.6-10.5V809.7z
			 M1068.2,807.8c2.6-1.7,5.5-4,8.8-7c3.3-2.9,6.3-6,9.2-9.3c2.9-3.3,5.3-6.5,7.3-9.6c2-3.1,2.9-5.8,2.9-8c0-1.6-0.6-2.4-1.7-2.4
			c-1.5,0-3.6,0.8-6.5,2.4c-2.9,1.6-6,3.9-9.5,6.7c-3.5,2.9-7.2,6.2-11,10.1c-3.8,3.9-7.5,8.1-11,12.5
			C1059.9,803.2,1063.7,804.7,1068.2,807.8z"/>
		<path d="M1189.5,801.8v8.2c-8.7,8.6-15.8,15.2-21.3,19.9c-5.5,4.7-10.6,8.4-15.4,11s-9.4,3.9-14,3.9c-4.5,0-8.6-1.8-12.4-5.3
			c-3.8-3.5-6.7-8.2-8.8-13.9c-2.1-5.7-3.2-11.8-3.2-18.3c0-5.5,1.2-10.5,3.7-14.8c2.4-4.3,7.2-9.9,14.2-16.8
			c8.3-8.2,16-14.5,23.2-18.9c7.1-4.4,12.7-6.7,16.8-6.7c2.9,0,5.4,1,7.5,3.1c2,2,3.1,4.6,3.1,7.7c0,2.6-1.3,6.3-4,11.1
			c-2.7,4.8-5.7,9-9,12.5c-3.3,3.5-6,5.3-7.9,5.3c-2.1,0-3.2-1.1-3.2-3.4c0.1-0.7,0.1-1.3,0.2-1.8c0-0.6,0.1-1.1,0.1-1.7
			c0-1-0.3-1.5-1-1.7c-0.7-0.1-1.5,0.2-2.5,0.9c-8.2,5.7-13.7,9.7-16.8,12c-3,2.3-5.4,4.7-7.2,7c-1.8,2.4-2.6,4.9-2.6,7.5
			c0,4.8,1.5,8.7,4.6,11.7c3.1,3,7.1,4.5,12.1,4.5c5.1,0,11.3-2,18.5-5.9C1171.2,815.1,1179.7,809.3,1189.5,801.8z"/>
		<path d="M1203.3,779.6c12.4-11.3,24.4-19.6,36.1-25.1c11.7-5.5,20.7-8.2,27-8.2c1.7,0,3.3,0.7,4.8,2.1c1.5,1.4,2.6,3.1,3.5,5
			c0.9,1.9,1.3,3.3,1.3,4.2c0,1.5-0.6,2.5-1.7,3.2c-1.1,0.7-3.1,1.5-6,2.5c0.6,1.3,1.3,3,2.2,5c0.9,2,1.6,3.7,2.1,5
			c0.5,1.3,0.7,2.4,0.7,3.4c0,2-2,5.6-5.9,10.9c-4,5.3-6.7,9.3-8.3,11.8c-1.6,2.5-2.4,5.6-2.4,9.3c0,6,2.8,9,8.3,9
			c5.7,0,14.6-5.3,26.8-16v7.5c-20.6,22.9-35.4,34.4-44.3,34.4c-3.2,0-5.4-1-6.8-3.1c-1.3-2.1-2-5.2-2-9.2c0-6.4,2.3-15.8,7-28
			c-11.9,13.2-20.8,22.6-26.5,28.2c-5.8,5.6-10.6,8.4-14.3,8.4c-1.8,0-4-1.5-6.7-4.6c-2.7-3.1-5.1-7.1-7.2-12
			c-2.1-4.9-3.1-10-3.1-15.3c0-3.8,0.4-7,1.1-9.6c0.7-2.6,2.2-5.2,4.3-7.9C1195.3,787.6,1198.7,784,1203.3,779.6z M1261.9,766.2
			c-21.2,9.7-36.3,17.9-45.3,24.7c-9,6.8-13.5,13.7-13.5,20.9c0,2.6,0.4,4.8,1.3,6.4c0.9,1.7,2.1,2.5,3.7,2.5c0.9,0,2.5-0.6,4.8-1.7
			c8.6-5.1,16.4-11.6,23.5-19.8C1243.4,791.1,1251.9,780.1,1261.9,766.2z"/>
		<path d="M1383.7,809.5c-5.9,5.8-11,10.7-15.3,14.8c-4.3,4.1-8.1,7.4-11.4,10c-3.3,2.6-6.1,4.5-8.5,5.7c-2.4,1.2-4.6,1.8-6.7,1.8
			c-2.9,0-5.4-1-7.3-2.9c-1.9-2-2.9-5-2.9-9.2c0-1.8,0.2-3.6,0.5-5.4c0.3-1.8,0.9-3.8,1.7-5.9c0.8-2.2,1.9-4.6,3.3-7.3
			c1.4-2.7,3.1-5.8,5.3-9.4c-3.9,0.8-8,2.3-12.2,4.4c-4.2,2.1-8.4,4.7-12.5,7.6c-4.2,3-8.3,6.2-12.4,9.8c-4.1,3.5-8,7.2-11.7,10.8
			c-0.7,0.7-1.6,1.2-2.8,1.8c-1.2,0.5-2.4,0.8-3.7,0.8c-1.6,0-3-0.5-4.2-1.4c-1.1-0.9-1.7-2.7-1.7-5.3c0-1.1,0.2-2.7,0.6-4.8
			c0.4-2,1-4.3,1.7-6.8c0.7-2.5,1.6-5.2,2.6-8c1-2.8,2.1-5.6,3.2-8.4c1.1-2.8,2.4-5.4,3.7-7.9c1.3-2.5,2.6-4.8,3.8-6.7
			c2.8-4.3,5.3-8.1,7.7-11.2c2.4-3.1,4.6-5.7,6.7-7.8c2.1-2.1,4.1-3.6,6.1-4.6c1.9-1,3.8-1.5,5.7-1.5c2.4,0,4.4,0.4,6.1,1.2
			c1.7,0.8,2.5,2.2,2.5,4c0,0.8-0.1,1.5-0.2,2.1c-0.2,0.6-0.5,1.2-1,1.8s-1.1,1.4-1.9,2.3c-0.8,0.9-1.8,2-3,3.4
			c-3.7,4.2-6.7,7.7-9.1,10.7c-2.4,3-4.5,5.8-6.2,8.4c-1.7,2.6-3.2,5.2-4.5,7.7c-1.3,2.5-2.7,5.4-4.2,8.7c2.4-2.8,5.1-5.6,8.3-8.4
			s6.8-5.5,10.9-8.1c4.1-2.6,8.6-5,13.7-7.2c5.1-2.2,10.6-4.2,16.8-5.8c3.2-6.8,5.8-12,7.9-15.6c2.1-3.5,3.8-6.3,5.1-8.1
			c2-3,4.6-4.5,7.7-4.5c1.1,0,2,0.4,2.8,1.3c0.8,0.9,1.5,2,2.1,3.4c0.6,1.4,1.1,2.9,1.5,4.6s0.6,3.4,0.8,5c0,0.7-0.3,1.4-0.9,2.4
			c-0.6,0.9-1.4,2-2.3,3.2c-0.9,1.2-2,2.4-3.1,3.7c-1.1,1.3-2.1,2.6-3,3.8c0,2.9-0.3,5.3-1,7.2c-0.2,0.6-0.5,1.1-0.9,1.7
			c-0.3,0.5-0.8,1.1-1.5,1.7c-0.7,0.6-1.6,1.2-2.8,1.9c-1.2,0.7-2.8,1.5-4.7,2.4c-0.2,0.6-0.8,1.4-1.5,2.6c-0.8,1.1-1.5,2.4-2.3,3.9
			c-0.8,1.5-1.5,3-2.1,4.6c-0.6,1.6-0.9,3.2-0.9,4.8c0,1.6,0.4,2.9,1.2,3.7c0.8,0.8,1.9,1.2,3.2,1.2c1.2,0,2.5-0.3,4-0.9
			c1.4-0.6,3.2-1.5,5.2-2.9c2-1.3,4.5-3.1,7.4-5.3c2.9-2.2,6.4-4.8,10.5-8V809.5z"/>
		<path d="M1479.9,809.7l-40.6,33.4c-11.4,19.7-21.8,34.5-31.2,44.2c-9.4,9.7-16.3,14.6-20.9,14.6c-2.4,0-3.7-1.5-3.7-4.5
			c0-5.9,3-13.4,8.9-22.5c2.4-3.6,5.1-7.1,8.1-10.5c3.1-3.4,6-6.4,8.7-8.9c2.7-2.5,6.3-5.6,10.8-9.3c4.5-3.7,7.5-6.3,9.2-7.6
			c8.2-16.6,14-29.4,17.6-38.2c-7.7,8.2-14.4,14.8-20.1,20.1c-5.7,5.2-10.9,9.2-15.7,12c-4.8,2.8-9.1,4.2-12.9,4.2
			c-4.2,0-8-3.3-11.5-10c-3.5-6.6-5.3-13.5-5.3-20.5c0-3.3,0.8-6.7,2.3-10.3c1.5-3.6,3.9-7.4,7.1-11.5c3.2-4.1,7.3-8.3,12.3-12.5
			c5-4.3,10.8-8.5,17.5-12.5c12.6-7.9,22.5-11.9,29.5-11.9c5.2,0,7.8,1.9,7.8,5.7c0,5.3-5.7,10.5-17,15.5c-6.9,3-13.8,7-20.6,12
			c-6.8,5-12.3,10.3-16.5,15.8c-4.2,5.6-6.3,10.6-6.3,15.1c0,2.2,0.5,4,1.6,5.3c1.1,1.3,2.4,2,4.2,2c2.9,0,6.1-1.3,9.8-3.9
			c3.7-2.6,9.1-7.2,16.3-13.8c3.3-3,7.6-7.9,13-14.6c5.4-6.7,9.9-11.9,13.5-15.4c3.5-3.5,6.7-5.3,9.6-5.3c1.6,0,3,0.5,4,1.5
			c1,1,1.5,2.5,1.5,4.5c0,3.8-1.5,9.2-4.5,16.3c-3,7.1-8.3,18.8-16.1,35l29.6-21.5V809.7z"/>
		<path d="M1477.6,811.8v-8.6c11.4-12.4,21.3-24,29.5-35c8.3-10.9,14.8-19.6,19.6-26c4.8-6.4,9-11,12.7-13.6c3.7-2.6,8.3-4,13.8-4
			c2.8,0,4.2,1.1,4.2,3.2c0,1.7-1.1,4.2-3.4,7.6c-2.2,3.3-5.1,6.8-8.6,10.3c-4.6,4.6-9.2,10.3-13.6,17.2
			c-4.4,6.9-9.5,15.7-15.1,26.4c4.4-3.4,9.5-7.5,15.2-12.2c5.7-4.7,10.4-8.4,14.1-11c3.6-2.6,7.2-4.7,10.8-6.3
			c3.5-1.5,7.1-2.3,10.7-2.3c2.3,0,3.8,0.4,4.5,1.2c0.7,0.8,1,2.4,1,4.8c0,6.2-1.5,12.3-4.5,18.2c-3,5.9-7.3,12-13,18.4
			c-5.6,6.4-12.6,13.3-20.8,20.8c2.9,1.1,5.8,1.6,8.8,1.6c9.5,0,22.1-7.2,38-21.6v8.8c-6.2,5.5-12.3,10.8-18.2,15.7
			c-5.9,4.9-11.5,8.8-16.7,11.7c-5.2,2.9-10,4.4-14.4,4.4c-1.6,0-3.4-0.2-5.2-0.5c-1.8-0.4-3.5-0.8-5.1-1.3c-1.5-0.5-3.5-1.3-6-2.3
			s-4.3-1.7-5.6-2.1c-2.6,0.7-4.1,1-4.4,1c-2.9,0-6.2-1.1-10-3.4c-2.7,5.2-5.6,12-8.9,20.2c-3.2,8.3-5.9,14.9-8.1,19.8
			c-2.2,4.9-5.1,9.6-8.8,14.1c-2,2-3.5,3.1-4.3,3.1c-3.5,0-5.3-3.1-5.3-9.3c0-5.4,1.1-11,3.2-16.8c2.2-5.8,4.8-11.4,7.9-16.6
			c3.1-5.2,6.6-10.5,10.3-15.8c3.7-5.3,6.4-9.3,7.9-11.9c12.9-22.2,22.9-41,30.1-56.6C1501.4,785.5,1487.2,801.8,1477.6,811.8z
			 M1527.3,817.8c8.1-8.5,14.1-15.7,18-21.6c4-6,5.9-10.5,5.9-13.7c0-3-1.5-4.5-4.5-4.5c-4.1,0-9.8,3.4-17.2,10.1
			c-7.4,6.7-15,15.8-22.8,27.2c6-0.7,10.1-0.9,12.1-0.7C1520.9,814.7,1523.7,815.8,1527.3,817.8z"/>
		<path d="M1707.9,758.6c5.6,0.5,11.1,1.1,16.5,1.9c5.4,0.8,10.5,1.8,15.2,3c4.8,1.2,9.2,2.7,13.2,4.5c4,1.8,7.5,4,10.4,6.5
			c2.9,2.5,5.2,5.5,6.8,8.9c1.6,3.4,2.4,7.3,2.4,11.7c0,8-2.5,15.8-7.5,23.3c-5,7.5-11.9,14.3-20.7,20.2c-8.8,6-19.2,10.7-31.2,14.3
			c-12,3.6-25,5.4-39,5.4c-6.6,0-12.5-0.5-17.7-1.6c-5.2-1.1-9.5-2.5-13.1-4.5c-3.5-1.9-6.2-4.2-8.1-6.8c-1.8-2.7-2.8-5.6-2.8-8.7
			c0-2.5,0.7-5.3,2.1-8.4c1.4-3.1,3.2-6,5.2-8.7c2-2.7,4.2-5,6.5-6.8s4.3-2.8,6.1-2.8c1.5,0,2.2,0.5,2.2,1.5c0,0.4-0.2,0.9-0.5,1.6
			c-0.3,0.7-0.7,1.3-1,2c-0.4,0.7-0.7,1.4-1,2c-0.3,0.7-0.4,1.2-0.4,1.6c0,1.4,0.6,2.8,1.7,4.2c1.1,1.4,2.7,2.8,4.8,4s4.6,2.2,7.5,3
			c2.9,0.8,6.2,1.2,9.8,1.2c12.3,0,23.3-1.3,33-3.9c9.7-2.6,17.9-5.9,24.6-9.8c6.7-3.9,11.9-8.2,15.5-12.8c3.6-4.6,5.4-8.9,5.4-13
			c0-3.2-1.2-5.8-3.5-7.9c-2.4-2.1-5.8-3.8-10.3-5.1c-4.5-1.3-10-2.2-16.6-2.8c-6.5-0.5-14-0.8-22.4-0.8c-3,0-6,0.2-8.9,0.5
			c-2.9,0.3-5.7,0.7-8.4,1.2c-2.9,0.6-5,1-6.3,1.2c-1.3,0.2-2,0.3-1.9,0.3c-1.5,0-2.3-1.4-2.3-4.2c0-2.8,0.4-5.6,1.1-8.4
			c0.7-2.8,1.7-5.4,2.8-7.8c1.1-2.4,2.3-4.5,3.5-6.2c1.3-1.8,2.4-3,3.5-3.7c1.7-1.2,8.5-2.9,20.3-4.9c4.8-0.8,10.1-1.8,16-2.8
			c5.8-1.1,11.7-2.3,17.7-3.7c6-1.4,11.9-3,17.6-4.8c5.7-1.8,10.9-3.8,15.6-6c4.6-2.2,8.5-4.6,11.7-7.3c3.1-2.7,5.1-5.7,5.8-8.9
			c0.1-0.4,0.1-0.8,0.2-1.1c0-0.3,0.1-0.6,0.1-0.7c0-3.6-2.5-5.9-7.6-7c-5.1-1.1-12.3-1.7-21.6-1.7c-7.6,0-14.6,0.2-21.2,0.6
			c-6.5,0.4-12.2,0.9-17.1,1.6c-4.9,0.7-8.8,1.4-11.6,2.4c-2.9,0.9-4.4,1.9-4.6,2.9c-0.1,0.2-0.1,0.5-0.1,1c0,1.6,0.9,2.9,2.7,3.7
			c1.8,0.8,4.2,1.6,7.1,2.3c1.1,0.2,1.8,0.5,2.3,0.8c0.4,0.3,0.7,0.8,0.7,1.4c0,1.8-1.8,3-5.3,3.7c-3.5,0.7-9.4,1-17.5,1
			c-1.2,0-2.5,0-4,0c-1.4,0-2.9,0-4.3-0.1c-1.3-0.7-2.5-1.5-3.5-2.3c-1-0.8-1.9-1.8-2.5-2.9c-0.7-1.1-1.2-2.4-1.5-3.9
			c-0.4-1.5-0.6-3.3-0.6-5.4c0-5,2-9.6,5.9-13.8c3.9-4.2,9.4-7.9,16.3-10.9c7-3.1,15.3-5.4,24.9-7.2c9.6-1.7,20.1-2.6,31.6-2.6
			c31.7,0,47.6,11.5,47.6,34.6c0,7.1-1.5,13.1-4.6,18.2c-3.1,5-8,9.7-14.7,14C1778.1,742.6,1752.2,749.5,1707.9,758.6z"/>
		<path d="M1799.4,779.6c12.4-11.3,24.4-19.6,36.1-25.1c11.7-5.5,20.7-8.2,27-8.2c1.7,0,3.3,0.7,4.8,2.1c1.5,1.4,2.6,3.1,3.5,5
			c0.9,1.9,1.3,3.3,1.3,4.2c0,1.5-0.6,2.5-1.7,3.2c-1.1,0.7-3.1,1.5-6,2.5c0.6,1.3,1.3,3,2.2,5c0.9,2,1.6,3.7,2.1,5
			c0.5,1.3,0.7,2.4,0.7,3.4c0,2-2,5.6-5.9,10.9c-4,5.3-6.7,9.3-8.3,11.8c-1.6,2.5-2.4,5.6-2.4,9.3c0,6,2.8,9,8.3,9
			c5.7,0,14.6-5.3,26.8-16v7.5c-20.6,22.9-35.4,34.4-44.3,34.4c-3.2,0-5.4-1-6.8-3.1c-1.3-2.1-2-5.2-2-9.2c0-6.4,2.3-15.8,7-28
			c-11.9,13.2-20.8,22.6-26.5,28.2c-5.8,5.6-10.6,8.4-14.3,8.4c-1.8,0-4-1.5-6.7-4.6c-2.7-3.1-5.1-7.1-7.2-12
			c-2.1-4.9-3.1-10-3.1-15.3c0-3.8,0.4-7,1.1-9.6c0.7-2.6,2.2-5.2,4.3-7.9C1791.4,787.6,1794.7,784,1799.4,779.6z M1858,766.2
			c-21.2,9.7-36.3,17.9-45.3,24.7c-9,6.8-13.5,13.7-13.5,20.9c0,2.6,0.4,4.8,1.3,6.4c0.9,1.7,2.1,2.5,3.7,2.5c0.9,0,2.5-0.6,4.8-1.7
			c8.6-5.1,16.4-11.6,23.5-19.8C1839.5,791.1,1848,780.1,1858,766.2z"/>
		<path d="M1910.8,801.5v-28.9c-3,0.7-5.9,2-8.6,3.9c-2.7,1.9-5.6,4.2-8.7,7c-3.1,2.8-5,4.2-5.7,4.2c-0.9,0-1.3-1.2-1.3-3.5
			c0-2.4,2.4-6.5,7.3-12.5c4.8-6,10.2-11.5,16.1-16.6c5.9-5.1,10.1-7.6,12.7-7.6c1.5,0,2.9,0.9,4,2.7c1.1,1.8,1.7,4.2,1.7,7.3
			c0,2,0,3.9-0.1,5.6c-0.1,1.7-0.2,4-0.2,6.8c-0.1,2.9-0.2,7-0.4,12.4c18-19.2,28.7-28.9,32-28.9c1,0,1.8,0.4,2.4,1.2
			c0.6,0.8,0.9,1.7,0.9,2.9c0,2.7-2.2,6.8-6.5,12.4c-4.4,5.6-7.3,8.4-8.7,8.4c-2,0-3.6-0.3-4.8-1l-15.5,19.8
			c0.2,7.2,0.8,12.5,1.9,16c1.1,3.5,3.1,5.3,5.9,5.3c2.4,0,5.3-1.2,8.6-3.7c3.3-2.4,8.6-7,15.9-13.6v8.4
			c-16.7,23.1-28.5,34.6-35.5,34.6c-4.3,0-7.4-2.3-9.2-6.8c-1.8-4.6-3-11.6-3.6-21c-2.9,2.9-6.2,6.5-10,10.6
			c-3.8,4.2-6.6,7.1-8.4,8.9c-1.8,1.8-3.3,3.2-4.8,4.3c-1.4,1.1-2.7,1.7-3.9,1.7s-1.7-1-1.7-2.9c0-3.3,1.7-7.7,5.2-13.5
			c3.5-5.7,6-8.6,7.5-8.6c0.2,0,0.8,0.2,2,0.5L1910.8,801.5z"/>
		<path d="M1974.1,779.6c12.4-11.3,24.4-19.6,36.1-25.1c11.7-5.5,20.7-8.2,27-8.2c1.7,0,3.3,0.7,4.8,2.1c1.5,1.4,2.6,3.1,3.5,5
			c0.9,1.9,1.3,3.3,1.3,4.2c0,1.5-0.6,2.5-1.7,3.2c-1.1,0.7-3.1,1.5-6,2.5c0.6,1.3,1.3,3,2.2,5c0.9,2,1.6,3.7,2.1,5
			c0.5,1.3,0.7,2.4,0.7,3.4c0,2-2,5.6-5.9,10.9c-4,5.3-6.7,9.3-8.3,11.8c-1.6,2.5-2.4,5.6-2.4,9.3c0,6,2.8,9,8.3,9
			c5.7,0,14.6-5.3,26.8-16v7.5c-20.6,22.9-35.4,34.4-44.3,34.4c-3.2,0-5.4-1-6.8-3.1c-1.3-2.1-2-5.2-2-9.2c0-6.4,2.3-15.8,7-28
			c-11.9,13.2-20.8,22.6-26.5,28.2c-5.8,5.6-10.6,8.4-14.3,8.4c-1.8,0-4-1.5-6.7-4.6c-2.7-3.1-5.1-7.1-7.2-12
			c-2.1-4.9-3.1-10-3.1-15.3c0-3.8,0.4-7,1.1-9.6c0.7-2.6,2.2-5.2,4.3-7.9C1966.1,787.6,1969.5,784,1974.1,779.6z M2032.7,766.2
			c-21.2,9.7-36.3,17.9-45.3,24.7c-9,6.8-13.5,13.7-13.5,20.9c0,2.6,0.4,4.8,1.3,6.4c0.9,1.7,2.1,2.5,3.7,2.5c0.9,0,2.5-0.6,4.8-1.7
			c8.6-5.1,16.4-11.6,23.5-19.8C2014.3,791.1,2022.8,780.1,2032.7,766.2z"/>
		<path d="M2060,811.8v-8.6c11.4-12.4,21.3-24,29.5-35c8.3-10.9,14.8-19.6,19.6-26c4.8-6.4,9-11,12.7-13.6c3.7-2.6,8.3-4,13.8-4
			c2.8,0,4.2,1.1,4.2,3.2c0,1.7-1.1,4.2-3.4,7.6c-2.2,3.3-5.1,6.8-8.6,10.3c-4.6,4.6-9.2,10.3-13.6,17.2
			c-4.4,6.9-9.5,15.7-15.1,26.4c4.4-3.4,9.5-7.5,15.2-12.2c5.7-4.7,10.4-8.4,14.1-11c3.6-2.6,7.2-4.7,10.8-6.3
			c3.5-1.5,7.1-2.3,10.7-2.3c2.3,0,3.8,0.4,4.5,1.2c0.7,0.8,1,2.4,1,4.8c0,6.2-1.5,12.3-4.5,18.2c-3,5.9-7.3,12-13,18.4
			c-5.6,6.4-12.6,13.3-20.8,20.8c2.9,1.1,5.8,1.6,8.8,1.6c9.5,0,22.1-7.2,38-21.6v8.8c-6.2,5.5-12.3,10.8-18.2,15.7
			c-5.9,4.9-11.5,8.8-16.7,11.7c-5.2,2.9-10,4.4-14.4,4.4c-1.6,0-3.4-0.2-5.2-0.5c-1.8-0.4-3.5-0.8-5.1-1.3c-1.5-0.5-3.5-1.3-6-2.3
			s-4.3-1.7-5.6-2.1c-2.6,0.7-4.1,1-4.4,1c-2.9,0-6.2-1.1-10-3.4c-2.7,5.2-5.6,12-8.9,20.2c-3.2,8.3-5.9,14.9-8.1,19.8
			c-2.2,4.9-5.1,9.6-8.8,14.1c-2,2-3.5,3.1-4.3,3.1c-3.5,0-5.3-3.1-5.3-9.3c0-5.4,1.1-11,3.2-16.8c2.2-5.8,4.8-11.4,7.9-16.6
			c3.1-5.2,6.6-10.5,10.3-15.8c3.7-5.3,6.4-9.3,7.9-11.9c12.9-22.2,22.9-41,30.1-56.6C2083.8,785.5,2069.6,801.8,2060,811.8z
			 M2109.6,817.8c8.1-8.5,14.1-15.7,18-21.6c4-6,5.9-10.5,5.9-13.7c0-3-1.5-4.5-4.5-4.5c-4.1,0-9.8,3.4-17.2,10.1
			c-7.4,6.7-15,15.8-22.8,27.2c6-0.7,10.1-0.9,12.1-0.7C2103.2,814.7,2106.1,815.8,2109.6,817.8z"/>
		<path d="M2241.7,801.3v8.2c-5.4,4.9-9.7,8.2-13,9.8c-3.3,1.6-7.9,2.3-14.1,2c-10.6,12.6-19.9,18.8-28,18.8
			c-4.6,0-8.7-1.5-12.5-4.5c-3.8-3-6.7-7.1-9-12.4c-2.2-5.2-3.4-11-3.4-17.5c0-5.2,1.7-11,5.2-17.4c3.5-6.4,7.9-12.3,13.5-17.8
			c5.5-5.5,11.4-9.9,17.7-13.3c6.3-3.4,12.1-5.1,17.5-5.1c3.8,0,6.8,0.6,9,1.8c2.2,1.2,3.3,2.8,3.3,5c0,1.6-0.9,3.5-2.8,5.6
			c3.1,0.7,5.2,1.7,6.4,3.2c1.1,1.5,1.7,4.3,1.7,8.3c0,3.9-0.9,8.8-2.8,14.8c-1.8,6-4.3,11.5-7.5,16.8l2.2,2.2h1.8
			c1.4,0,2.8-0.3,4.1-1c1.3-0.7,2.5-1.4,3.6-2.2C2235.8,805.7,2238.1,804,2241.7,801.3z M2216.5,769.1c-6.8,4.1-12.6,7.8-17.4,11.1
			c-4.8,3.3-8.9,6.6-12.2,10c-3.3,3.4-5.6,6.8-6.7,10.2c-2,9.1-3.1,14.1-3.1,14.8c0,5.4,3.7,8.1,11.3,8.1c3.5,0,9.4-3,17.6-9
			c-1.4-3.8-2.1-7.5-2.1-11c0-5.1,1.1-10.4,3.2-15.7C2209.2,782.2,2212.4,776,2216.5,769.1z"/>
		<path d="M2322.4,801.8v7.9c-8.5,5.4-15.2,8.1-20.1,8.1c-2.7,0-5.5-0.4-8.6-1.3c-7.3,9.3-13.6,16.1-18.9,20.4s-10.5,6.5-15.8,6.5
			c-6.1,0-10.8-3.2-14.1-9.7s-5-14.4-5-24c0-13,3.9-27.1,11.7-42.4c7.8-15.3,17.3-29.6,28.3-42.9c11-13.3,21.7-24.4,32.1-33.1
			c10.4-8.7,17.4-13.1,21-13.1c3.5,0,5.3,2.4,5.3,7.2c0,21.4-27.4,58.6-82.2,111.8c-0.2,1.5-0.2,4.4-0.2,8.7c0,11.3,3,16.9,9,16.9
			c2.4,0,4.7-1,7.2-2.9c2.4-1.9,6.1-5.6,11.1-10.9c-2-4.4-2.9-7.7-2.9-9.8c0-4.5,1.8-9.3,5.5-14.6c3.7-5.2,7.8-9.7,12.5-13.5
			c4.7-3.8,8.1-5.7,10.2-5.7c3.3,0,5,2.4,5,7.2c0,3.7-1,8.1-2.9,13.2c-1.9,5.1-4.7,11-8.4,17.6c1.4,1.1,2.5,2,3.3,2.5
			c0.8,0.5,2,0.8,3.7,0.8C2313.1,806.8,2317.5,805.1,2322.4,801.8z M2260.3,783.4c4.2-3.7,8.5-8,12.8-13s10.5-12.7,18.8-23.1
			c7.9-9.9,14.1-18.2,18.7-24.9c4.5-6.6,7.9-12.2,10.2-16.6c2.3-4.4,3.4-7.4,3.4-9c0-1.2-0.3-1.8-1-1.8c-1.8,0-5.5,3-11.2,8.9
			c-5.7,5.9-12.1,14-19.4,24.3c-10,14.2-17.3,24.9-21.8,32C2266.3,767.4,2262.8,775.1,2260.3,783.4z"/>
	</g>
	<g>
		<path d="M1197.3,982.1h-28.4l-5.5,14.4h-4.5l22-56.6h4.5l21.9,56.6h-4.5L1197.3,982.1z M1195.7,978.1l-12.6-32.9l-12.6,32.9
			H1195.7z"/>
		<path d="M1274,957.5c0,9.9-7.4,17.5-17.6,17.5h-15v21.6h-4.3v-56.6h19.2C1266.6,939.9,1274,947.4,1274,957.5z M1269.7,957.5
			c0-7.8-5.6-13.5-13.3-13.5h-15v26.9h15C1264.2,970.9,1269.7,965.2,1269.7,957.5z"/>
		<path d="M1338.7,996.5l-16.3-25.2l-16.3,25.2h-5l18.8-29.1l-17.8-27.5h4.9l15.4,23.7l15.3-23.7h4.9l-17.8,27.5l18.8,29.1H1338.7z"
			/>
		<path d="M1411.3,947.9l-33.5,48.7h-3.7v-56.6h4.3v48.7l33.4-48.7h3.8v56.6h-4.3V947.9z"/>
		<path d="M1486.1,944h-17.8v52.6h-4.4V944h-17.8v-4h40V944z"/>
		<path d="M1549.1,992.5v4h-32.6v-56.6h32.2v4h-27.9v22h25.9v4h-25.9v22.5H1549.1z"/>
		<path d="M1613.9,996.5l-28.4-27.9v27.9h-4.3v-56.6h4.3v26.4l27.6-26.4h5.7l-28.6,27.5l29.4,29.1H1613.9z"/>
		<path d="M1683.8,944h-17.8v52.6h-4.4V944h-17.8v-4h40V944z"/>
		<path d="M1711.1,968.2c0-16.2,12.9-29.2,29.2-29.2c16.3,0,29.2,13,29.2,29.2c0,16.2-12.9,29.2-29.2,29.2
			C1724,997.4,1711.1,984.4,1711.1,968.2z M1765.2,968.2c0-13.9-10.9-25.1-24.9-25.1c-14,0-24.9,11.2-24.9,25.1
			c0,13.9,10.9,25.1,24.9,25.1C1754.3,993.3,1765.2,982.1,1765.2,968.2z"/>
		<path d="M1838.8,957.5c0,9.9-7.4,17.5-17.6,17.5h-15v21.6h-4.3v-56.6h19.2C1831.3,939.9,1838.8,947.4,1838.8,957.5z M1834.5,957.5
			c0-7.8-5.6-13.5-13.3-13.5h-15v26.9h15C1828.9,970.9,1834.5,965.2,1834.5,957.5z"/>
	</g>
</g>
</svg>
