<?xml version="1.0"?>
<svg xmlns="http://www.w3.org/2000/svg" width="512" height="512" viewBox="0 0 512 512"><g><path d="M277.27,345.98l-128-112a8,8,0,0,0-10.54,0l-128,112A8,8,0,0,0,16,360H48V496a8,8,0,0,0,8,8H232a8,8,0,0,0,8-8V360h32a8,8,0,0,0,5.27-14.02ZM168,488H120V424h48Zm56,0H184V416a8,8,0,0,0-8-8H112a8,8,0,0,0-8,8v72H64V360H224ZM37.29,344,144,250.63,250.71,344Z"/><path d="M501.27,121.98l-128-112a8,8,0,0,0-10.54,0l-128,112A8,8,0,0,0,240,136h32V272a8,8,0,0,0,8,8H456a8,8,0,0,0,8-8V136h32a8,8,0,0,0,5.27-14.02ZM392,264H344V200h48Zm56,0H408V192a8,8,0,0,0-8-8H336a8,8,0,0,0-8,8v72H288V136H448ZM261.29,120,368,26.63,474.71,120Z"/><path d="M80,152A72,72,0,1,0,8,80,72.081,72.081,0,0,0,80,152ZM80,24A56,56,0,1,1,24,80,56.063,56.063,0,0,1,80,24Z"/><path d="M432,360a72,72,0,1,0,72,72A72.081,72.081,0,0,0,432,360Zm0,128a56,56,0,1,1,56-56A56.063,56.063,0,0,1,432,488Z"/><path d="M72,176v72a8,8,0,0,0,16,0V176a8,8,0,0,0-16,0Z"/><path d="M176,88h64a8,8,0,0,0,0-16H176a8,8,0,0,0,0,16Z"/><path d="M424,304v32a8,8,0,0,0,16,0V304a8,8,0,0,0-16,0Z"/><path d="M336,424H264a8,8,0,0,0,0,16h72a8,8,0,0,0,0-16Z"/><path d="M152,440a8,8,0,0,0-8,8v16a8,8,0,0,0,16,0V448A8,8,0,0,0,152,440Z"/><path d="M376,216a8,8,0,0,0-8,8v16a8,8,0,0,0,16,0V224A8,8,0,0,0,376,216Z"/><circle cx="432" cy="456" r="8"/><path d="M453.336,432.15a32,32,0,0,0-42.672,0,8,8,0,0,0,10.671,11.922,16,16,0,0,1,21.33,0,8,8,0,0,0,10.671-11.922Z"/><path d="M469.335,414.262a56,56,0,0,0-74.67,0,8,8,0,1,0,10.67,11.922,40,40,0,0,1,53.33,0,8,8,0,0,0,10.67-11.922Z"/><circle cx="80" cy="104" r="8"/><path d="M101.336,80.15a32,32,0,0,0-42.672,0A8,8,0,0,0,69.335,92.072a16,16,0,0,1,21.33,0A8,8,0,0,0,101.336,80.15Z"/><path d="M53.335,74.184a40,40,0,0,1,53.33,0,8,8,0,1,0,10.67-11.922,56,56,0,0,0-74.67,0,8,8,0,0,0,10.67,11.922Z"/></g></svg>
